<svg id="south" xmlns="http://www.w3.org/2000/svg" width="880" height="1128" viewBox="0 0 880 1128">
  <defs>
    <style>
      .cls-1 {
        fill-rule: evenodd;
      }

      .cls-2 {
        opacity: 0.9;
      }
    </style>
  </defs>
  <g id="half_1">
    <path id="boder" class="cls-1" d="M177,846.281H0V987.344H271V846.281H214.3V854H264V980H15.031V854H177v-7.719Z"/>
  </g>
  <g id="half_2">
    <path id="border" class="cls-1" d="M0,705.281H271V752h-7V712H15.031V837.945H177v8.336H0v-141ZM264,788h7v58.281H214.3v-8.336H264V788Z"/>
    <path id="door" class="cls-1" d="M263.894,788.926H228C227.964,770.094,241.222,752,271,752v3c-26.587,0-40,15.094-40,32-0.064.029,40,0,40,0v2Z"/>
    <path id="door_middle" class="cls-1" d="M177.074,845.106V881C195.906,881.036,214,867.778,214,838h-3c0,26.587-15.094,40-32,40-0.029.064,0-40,0-40h-2Z"/>
  </g>
  <g id="_5" data-name="5">
    <path id="border-2" data-name="border" class="cls-1" d="M-0.423,423.336V282.282h271.15v46.765h-6.833v-40.3H213.548v40.3h-6.113v-40.3H14.321V415.732H207.435V365.926h6.113v49.806h50.346v-37.26H239.081v-5.7h24.813v-6.843h6.833v57.41H-0.423Z"/>
    <path id="door-2" data-name="door" class="cls-1" d="M263.894,365.926H228C227.964,347.094,241.222,329,271,329v3c-26.587,0-40,15.094-40,32-0.064.029,40,0,40,0v2Z"/>
  </g>
  <g id="_6" data-name="6" class="cls-2">
    <path id="border-3" data-name="border" class="cls-1" d="M-0.423,141.289V282.343h271.15V235.578h-6.833v40.3H213.548v-40.3h-6.113v40.3H14.321V148.893H207.435V198.7h6.113V148.893h50.346v37.26H239.081v5.7h24.813V198.7h6.833v-57.41H-0.423Z"/>
    <path id="door-3" data-name="door" class="cls-1" d="M263.894,198.7H228c-0.036,18.832,13.222,36.926,43,36.926v-3c-26.587,0-40-15.094-40-32-0.064-.029,40,0,40,0v-2Z"/>
  </g>
  <g id="_7" data-name="7">
    <path id="border-4" data-name="border" class="cls-1" d="M-0.423,141.336V0.282h271.15V47.047h-6.833V6.746H213.548v40.3h-6.113V6.746H14.321V133.732H207.435V83.926h6.113v49.806h50.346V96.472H239.081v-5.7h24.813V83.926h6.833v57.41H-0.423Z"/>
    <path id="door-4" data-name="door" class="cls-1" d="M263.894,83.926H228C227.964,65.094,241.222,47,271,47v3c-26.587,0-40,15.094-40,32-0.064.029,40,0,40,0v2Z"/>
  </g>
</svg>
