<svg id="south" xmlns="http://www.w3.org/2000/svg" width="880" height="1128" viewBox="0 0 880 1128">
  <defs>
    <style>
      .cls-1 {
        fill-rule: evenodd;
      }
    </style>
  </defs>
  <g id="_1" data-name="1">
    <path id="border" class="cls-1" d="M-0.423,987.289V1128.34h271.15v-46.76h-6.833v40.3H213.548v-40.3h-6.113v40.3H14.321V994.893H207.435V1044.7h6.113V994.893h50.346v37.257H239.081v5.71h24.813v6.84h6.833V987.289H-0.423Z"/>
    <path id="door" class="cls-1" d="M263.894,1044.7H228c-0.036,18.83,13.222,36.92,43,36.92v-3c-26.587,0-40-15.09-40-32-0.064-.02,40,0,40,0v-2Z"/>
  </g>
  <g id="_2" data-name="2">
    <path id="border-2" data-name="border" class="cls-1" d="M-0.423,987.336V846.282h271.15v46.765h-6.833v-40.3H213.548v40.3h-6.113v-40.3H14.321V979.732H207.435V929.926h6.113v49.806h50.346v-37.26H239.081v-5.7h24.813v-6.843h6.833v57.41H-0.423Z"/>
    <path id="door-2" data-name="door" class="cls-1" d="M263.894,929.926H228C227.964,911.094,241.222,893,271,893v3c-26.587,0-40,15.094-40,32-0.064.029,40,0,40,0v2Z"/>
  </g>
  <g id="_3" data-name="3">
    <path id="border-3" data-name="border" class="cls-1" d="M-0.423,705.336V564.282h271.15v46.765h-6.833v-40.3H213.548v40.3h-6.113v-40.3H14.321V697.732H207.435V647.926h6.113v49.806h50.346v-37.26H239.081v-5.7h24.813v-6.843h6.833v57.41H-0.423Z"/>
    <path id="door-3" data-name="door" class="cls-1" d="M263.894,647.926H228C227.964,629.094,241.222,611,271,611v3c-26.587,0-40,15.094-40,32-0.064.029,40,0,40,0v2Z"/>
  </g>
  <g id="_4" data-name="4">
    <path id="border-4" data-name="border" class="cls-1" d="M-0.423,423.289V564.343h271.15V517.578h-6.833v40.3H213.548v-40.3h-6.113v40.3H14.321V430.893H207.435V480.7h6.113V430.893h50.346v37.26H239.081v5.7h24.813V480.7h6.833v-57.41H-0.423Z"/>
    <path id="door-4" data-name="door" class="cls-1" d="M263.894,480.7H228c-0.036,18.832,13.222,36.926,43,36.926v-3c-26.587,0-40-15.094-40-32-0.064-.029,40,0,40,0v-2Z"/>
  </g>
  <g id="_5" data-name="5">
    <path id="border-5" data-name="border" class="cls-1" d="M-0.423,423.336V282.282h271.15v46.765h-6.833v-40.3H213.548v40.3h-6.113v-40.3H14.321V415.732H207.435V365.926h6.113v49.806h50.346v-37.26H239.081v-5.7h24.813v-6.843h6.833v57.41H-0.423Z"/>
    <path id="door-5" data-name="door" class="cls-1" d="M263.894,365.926H228C227.964,347.094,241.222,329,271,329v3c-26.587,0-40,15.094-40,32-0.064.029,40,0,40,0v2Z"/>
  </g>
  <g id="_6" data-name="6">
    <path id="border-6" data-name="border" class="cls-1" d="M-0.423,141.289V282.343h271.15V235.578h-6.833v40.3H213.548v-40.3h-6.113v40.3H14.321V148.893H207.435V198.7h6.113V148.893h50.346v37.26H239.081v5.7h24.813V198.7h6.833v-57.41H-0.423Z"/>
    <path id="door-6" data-name="door" class="cls-1" d="M263.894,198.7H228c-0.036,18.832,13.222,36.926,43,36.926v-3c-26.587,0-40-15.094-40-32-0.064-.029,40,0,40,0v-2Z"/>
  </g>
  <g id="_7" data-name="7">
    <path id="border-7" data-name="border" class="cls-1" d="M-0.423,141.336V0.282h271.15V47.047h-6.833V6.746H213.548v40.3h-6.113V6.746H14.321V133.732H207.435V83.926h6.113v49.806h50.346V96.472H239.081v-5.7h24.813V83.926h6.833v57.41H-0.423Z"/>
    <path id="door-7" data-name="door" class="cls-1" d="M263.894,83.926H228C227.964,65.094,241.222,47,271,47v3c-26.587,0-40,15.094-40,32-0.064.029,40,0,40,0v2Z"/>
  </g>
  <g id="_3-2" data-name="3">
    <path id="border-8" data-name="border" class="cls-1" d="M879.985,705.336V564.282H608.836v46.765h6.832v-40.3h50.346v40.3h6.114v-40.3H865.241V697.732H672.128V647.926h-6.114v49.806H615.668v-37.26h24.814v-5.7H615.668v-6.843h-6.832v57.41H879.985Z"/>
    <path id="door-8" data-name="door" class="cls-1" d="M615.668,647.926h35.894C651.6,629.094,638.34,611,608.562,611v3c26.587,0,40,15.094,40,32,0.064,0.029-40,0-40,0v2Z"/>
  </g>
  <g id="_4-2" data-name="4">
    <path id="border-9" data-name="border" class="cls-1" d="M879.985,423.289V564.343H608.836V517.578h6.832v40.3h50.346v-40.3h6.114v40.3H865.241V430.893H672.128V480.7h-6.114V430.893H615.668v37.26h24.814v5.7H615.668V480.7h-6.832v-57.41H879.985Z"/>
    <path id="door-9" data-name="door" class="cls-1" d="M615.668,480.7h35.894c0.036,18.832-13.222,36.926-43,36.926v-3c26.587,0,40-15.094,40-32,0.064-.029-40,0-40,0v-2Z"/>
  </g>
  <g id="_5-2" data-name="5">
    <path id="border-10" data-name="border" class="cls-1" d="M879.985,423.336V282.282H608.836v46.765h6.832v-40.3h50.346v40.3h6.114v-40.3H865.241V415.732H672.128V365.926h-6.114v49.806H615.668v-37.26h24.814v-5.7H615.668v-6.843h-6.832v57.41H879.985Z"/>
    <path id="door-10" data-name="door" class="cls-1" d="M615.668,365.926h35.894C651.6,347.094,638.34,329,608.562,329v3c26.587,0,40,15.094,40,32,0.064,0.029-40,0-40,0v2Z"/>
  </g>
  <g id="_6-2" data-name="6">
    <path id="border-11" data-name="border" class="cls-1" d="M879.985,141.289V282.343H608.836V235.578h6.832v40.3h50.346v-40.3h6.114v40.3H865.241V148.893H672.128V198.7h-6.114V148.893H615.668v37.26h24.814v5.7H615.668V198.7h-6.832v-57.41H879.985Z"/>
    <path id="door-11" data-name="door" class="cls-1" d="M615.668,198.7h35.894c0.036,18.832-13.222,36.926-43,36.926v-3c26.587,0,40-15.094,40-32,0.064-.029-40,0-40,0v-2Z"/>
  </g>
  <g id="_7-2" data-name="7">
    <path id="border-12" data-name="border" class="cls-1" d="M879.985,141.336V0.282H608.836V47.047h6.832V6.746h50.346v40.3h6.114V6.746H865.241V133.732H672.128V83.926h-6.114v49.806H615.668V96.472h24.814v-5.7H615.668V83.926h-6.832v57.41H879.985Z"/>
    <path id="door-12" data-name="door" class="cls-1" d="M615.668,83.926h35.894C651.6,65.094,638.34,47,608.562,47v3c26.587,0,40,15.094,40,32,0.064,0.029-40,0-40,0v2Z"/>
  </g>
  <g id="_13" data-name="13">
    <path id="border-13" data-name="border" class="cls-1" d="M879.985,705.289V846.343H608.836V799.578h6.832v40.3h50.346v-40.3h6.114v40.3H865.241V712.893H672.128V762.7h-6.114V712.893H615.668v37.26h24.814v5.7H615.668V762.7h-6.832v-57.41H879.985Z"/>
    <path id="door-13" data-name="door" class="cls-1" d="M615.668,762.7h35.894c0.036,18.832-13.222,36.926-43,36.926v-3c26.587,0,40-15.094,40-32,0.064-.029-40,0-40,0v-2Z"/>
  </g>
  <g id="_14" data-name="14">
    <path id="border-14" data-name="border" class="cls-1" d="M879.985,987.336V846.282H608.836v46.765h6.832v-40.3h50.346v40.3h6.114v-40.3H865.241V979.732H672.128V929.926h-6.114v49.806H615.668v-37.26h24.814v-5.7H615.668v-6.843h-6.832v57.41H879.985Z"/>
    <path id="door-14" data-name="door" class="cls-1" d="M615.668,929.926h35.894C651.6,911.094,638.34,893,608.562,893v3c26.587,0,40,15.094,40,32,0.064,0.029-40,0-40,0v2Z"/>
  </g>
  <g id="_15" data-name="15">
    <path id="border-15" data-name="border" class="cls-1" d="M879.985,987.289V1128.34H608.836v-46.76h6.832v40.3h50.346v-40.3h6.114v40.3H865.241V994.893H672.128V1044.7h-6.114V994.893H615.668v37.257h24.814v5.71H615.668v6.84h-6.832V987.289H879.985Z"/>
    <path id="door-15" data-name="door" class="cls-1" d="M615.668,1044.7h35.894c0.036,18.83-13.222,36.92-43,36.92v-3c26.587,0,40-15.09,40-32,0.064-.02-40,0-40,0v-2Z"/>
  </g>
</svg>
