<svg id="south" xmlns="http://www.w3.org/2000/svg" width="880" height="1128" viewBox="0 0 880 1128">
  <defs>
    <style>
      .cls-1 {
        fill-rule: evenodd;
      }

      .cls-2 {
        opacity: 0.9;
      }
    </style>
  </defs>
  <g id="_1" data-name="1">
    <path id="border" data-name="border" class="cls-1" d="M-0.423,987.336V846.282h271.15v46.765h-6.833v-40.3H213.548v40.3h-6.113v-40.3H14.321V979.732H207.435V929.926h6.113v49.806h50.346v-37.26H239.081v-5.7h24.813v-6.843h6.833v57.41H-0.423Z"/>
    <path id="door" data-name="door" class="cls-1" d="M263.894,929.926H228C227.964,911.094,241.222,893,271,893v3c-26.587,0-40,15.094-40,32-0.064.029,40,0,40,0v2Z"/>
  </g>
  <g id="_2" data-name="2">
    <path id="border-2" class="cls-1" d="m-0.423,705.289l0,141.051l271.15,0l0,-46.76l-6.833,0l0,40.3l-50.346,0l0,-40.3l-6.113,0l0,40.3l-193.114,0l0,-126.987l193.114,0l0,49.807l6.113,0l0,-49.807l50.346,0l0,37.257l-24.813,0l0,5.71l24.813,0l0,6.84l6.833,0l0,-57.411l-271.15,0z"/>
    <path id="door-2" class="cls-1" d="m263.894,762.7l-35.894,0c-0.036,18.83 13.222,36.92 43,36.92l0,-3c-26.587,0 -40,-15.09 -40,-32c-0.064,-0.02 40,0 40,0l0,-2l-7.106,0.08z"/>
  </g>
  <g id="_5" data-name="5">
    <path id="border-3" data-name="border" class="cls-1" d="M-0.423,423.336V282.282h271.15v46.765h-6.833v-40.3H213.548v40.3h-6.113v-40.3H14.321V415.732H207.435V365.926h6.113v49.806h50.346v-37.26H239.081v-5.7h24.813v-6.843h6.833v57.41H-0.423Z"/>
    <path id="door-3" data-name="door" class="cls-1" d="M263.894,365.926H228C227.964,347.094,241.222,329,271,329v3c-26.587,0-40,15.094-40,32-0.064.029,40,0,40,0v2Z"/>
  </g>
  <g id="_6" data-name="6" class="cls-2">
    <path id="border-4" data-name="border" class="cls-1" d="M-0.423,141.289V282.343h271.15V235.578h-6.833v40.3H213.548v-40.3h-6.113v40.3H14.321V148.893H207.435V198.7h6.113V148.893h50.346v37.26H239.081v5.7h24.813V198.7h6.833v-57.41H-0.423Z"/>
    <path id="door-4" data-name="door" class="cls-1" d="M263.894,198.7H228c-0.036,18.832,13.222,36.926,43,36.926v-3c-26.587,0-40-15.094-40-32-0.064-.029,40,0,40,0v-2Z"/>
  </g>
  <g id="_7" data-name="7">
    <path id="border-5" data-name="border" class="cls-1" d="M-0.423,141.336V0.282h271.15V47.047h-6.833V6.746H213.548v40.3h-6.113V6.746H14.321V133.732H207.435V83.926h6.113v49.806h50.346V96.472H239.081v-5.7h24.813V83.926h6.833v57.41H-0.423Z"/>
    <path id="door-5" data-name="door" class="cls-1" d="M263.894,83.926H228C227.964,65.094,241.222,47,271,47v3c-26.587,0-40,15.094-40,32-0.064.029,40,0,40,0v2Z"/>
  </g>
</svg>
